<svg width="100" height="100" viewBox="0 0 100 100" fill="none" xmlns="http://www.w3.org/2000/svg">
<path d="M41.4688 24.8C41.4688 24.8 32.5547 25.4125 26.725 30.0937C26.6977 30.1047 26.6648 30.1211 26.6375 30.1375C25.6258 31.0727 24.8656 32.5219 23.925 34.6C22.9844 36.6781 21.9891 39.3523 21.0813 42.3437C19.2711 48.332 17.8 55.682 17.8 62.6C17.7945 62.8461 17.8547 63.0867 17.975 63.3C20.0203 66.893 23.7828 69.0641 27.2938 70.4313C30.8047 71.7984 34.0477 72.3453 35.6938 72.4C36.1586 72.4164 36.6016 72.2031 36.875 71.8313L40.2875 67.1062C43.0383 67.757 46.2648 68.2 50 68.2C53.7352 68.2 56.9617 67.757 59.7125 67.1062L63.125 71.8313C63.3984 72.2031 63.8414 72.4164 64.3063 72.4C65.9523 72.3453 69.1953 71.7984 72.7063 70.4313C76.2172 69.0641 79.9797 66.893 82.025 63.3C82.1453 63.0867 82.2055 62.8461 82.2 62.6C82.2 55.682 80.7289 48.332 78.9188 42.3437C78.0109 39.3523 77.0156 36.6781 76.075 34.6C75.1344 32.5219 74.3742 31.0727 73.3625 30.1375C73.3352 30.1211 73.3023 30.1047 73.275 30.0937C67.4453 25.4125 58.5313 24.8 58.5313 24.8C58.4273 24.7891 58.3289 24.7891 58.225 24.8C57.7383 24.8656 57.3281 25.1828 57.1313 25.6312C57.1313 25.6312 56.6555 26.6758 56.3438 28.1687C53.6148 27.7312 51.318 27.6 50 27.6C48.682 27.6 46.3852 27.7312 43.6563 28.1687C43.3445 26.6758 42.8688 25.6312 42.8688 25.6312C42.6281 25.0844 42.0648 24.7508 41.4688 24.8ZM40.5938 27.8187C40.6977 28.1031 40.7688 28.3711 40.8563 28.6937C37.7008 29.4266 34.2445 30.6242 31.0125 32.6312C30.5039 32.8445 30.1703 33.3367 30.1539 33.8891C30.143 34.4359 30.4547 34.9445 30.9469 35.1852C31.4445 35.4203 32.0352 35.3492 32.4563 34.9937C38.9422 30.9742 47.1945 30.4 50 30.4C52.8055 30.4 61.0578 30.9742 67.5438 34.9937C67.9648 35.3492 68.5555 35.4203 69.0531 35.1852C69.5453 34.9445 69.857 34.4359 69.8461 33.8891C69.8297 33.3367 69.4961 32.8445 68.9875 32.6312C65.7555 30.6242 62.2992 29.4266 59.1438 28.6937C59.2313 28.3711 59.3023 28.1031 59.4063 27.8187C61.0031 28.0156 67.2102 28.8523 71.4375 32.1937C71.7109 32.4453 72.6625 33.8453 73.5375 35.7812C74.4125 37.7172 75.3313 40.2383 76.2063 43.1312C77.9125 48.775 79.2906 55.7367 79.3563 62.1187C77.7648 64.6945 74.7789 66.6086 71.7 67.8062C68.9 68.8945 66.2859 69.3812 64.9188 69.5125L62.5563 66.3187C63.7594 65.9305 64.8422 65.5094 65.7938 65.0937C69.3266 63.5406 71.2188 61.9 71.2188 61.9C71.7984 61.3805 71.8477 60.4891 71.3281 59.9094C70.8086 59.3297 69.9172 59.2805 69.3375 59.8C69.3375 59.8 67.8719 61.1398 64.6563 62.5562C63.475 63.0758 62.0422 63.5898 60.4125 64.0437C60.0352 64 59.6578 64.1094 59.3625 64.35C56.7539 64.9844 53.6531 65.4 50 65.4C46.3195 65.4 43.2133 64.9461 40.5938 64.3062C40.2984 64.1094 39.9375 64.0273 39.5875 64.0875C37.9523 63.6336 36.5305 63.0758 35.3438 62.5562C32.1281 61.1398 30.6625 59.8 30.6625 59.8C30.3453 59.5047 29.9078 59.3789 29.4813 59.45C28.9398 59.532 28.4914 59.9203 28.3438 60.4508C28.1906 60.9758 28.3656 61.5445 28.7813 61.9C28.7813 61.9 30.6734 63.5406 34.2063 65.0937C35.1578 65.5094 36.2406 65.9305 37.4438 66.3187L35.0813 69.5125C33.7141 69.3812 31.1 68.8945 28.3 67.8062C25.2211 66.6086 22.2352 64.6945 20.6438 62.1187C20.7094 55.7367 22.0875 48.775 23.7938 43.1312C24.6688 40.2383 25.5875 37.7172 26.4625 35.7812C27.3375 33.8453 28.2891 32.4453 28.5625 32.1937C32.7898 28.8523 38.9969 28.0156 40.5938 27.8187ZM40.9 44.4C37.3289 44.4 34.6 47.643 34.6 51.4C34.6 55.157 37.3289 58.4 40.9 58.4C44.4711 58.4 47.2 55.157 47.2 51.4C47.2 47.643 44.4711 44.4 40.9 44.4ZM59.1 44.4C55.5289 44.4 52.8 47.643 52.8 51.4C52.8 55.157 55.5289 58.4 59.1 58.4C62.6711 58.4 65.4 55.157 65.4 51.4C65.4 47.643 62.6711 44.4 59.1 44.4ZM40.9 47.2C42.743 47.2 44.4 48.9719 44.4 51.4C44.4 53.8281 42.743 55.6 40.9 55.6C39.057 55.6 37.4 53.8281 37.4 51.4C37.4 48.9719 39.057 47.2 40.9 47.2ZM59.1 47.2C60.943 47.2 62.6 48.9719 62.6 51.4C62.6 53.8281 60.943 55.6 59.1 55.6C57.257 55.6 55.6 53.8281 55.6 51.4C55.6 48.9719 57.257 47.2 59.1 47.2Z" fill="#FFF3D7"/>
<rect x="1.5" y="1.5" width="97" height="97" rx="48.5" stroke="#FD8181" stroke-width="3"/>
</svg>
