<svg width="100" height="100" viewBox="0 0 100 100" fill="none" xmlns="http://www.w3.org/2000/svg">
<path d="M57.1969 16.8C52.6185 16.8 48.6635 18.1957 45.8875 20.9535C43.1114 23.7113 41.6 27.7534 41.6 32.7141V39.2H33.2C32.8287 39.2 32.4726 39.3476 32.2101 39.6101C31.9475 39.8726 31.8 40.2287 31.8 40.6V51.8C31.8 52.1713 31.9475 52.5274 32.2101 52.7899C32.4726 53.0525 32.8287 53.2 33.2 53.2H41.6V79.8C41.6 80.1713 41.7475 80.5274 42.0101 80.7899C42.2726 81.0524 42.6287 81.2 43 81.2H54.2C54.5713 81.2 54.9274 81.0524 55.1899 80.7899C55.4524 80.5274 55.6 80.1713 55.6 79.8V53.2H65.4C65.741 53.2 66.0702 53.0755 66.326 52.85C66.5817 52.6244 66.7464 52.3133 66.789 51.975L68.189 40.775C68.2139 40.5779 68.1965 40.3778 68.138 40.188C68.0795 39.9982 67.9813 39.823 67.85 39.674C67.7186 39.5251 67.557 39.4057 67.376 39.324C67.195 39.2423 66.9986 39.2 66.8 39.2H55.6V33.6C55.6 32.0367 56.8367 30.8 58.4 30.8H66.8C67.1713 30.8 67.5274 30.6525 67.7899 30.3899C68.0524 30.1274 68.2 29.7713 68.2 29.4V18.684C68.1996 18.3447 68.076 18.0171 67.8521 17.7621C67.6283 17.5071 67.3196 17.3421 66.9832 17.2977C65.746 17.1335 61.28 16.8 57.1969 16.8ZM57.1969 19.6C60.6099 19.6 63.9091 19.8731 65.4 20.0129V28H58.4C55.3237 28 52.8 30.5237 52.8 33.6V40.6C52.8 40.9713 52.9475 41.3274 53.2101 41.5899C53.4726 41.8525 53.8287 42 54.2 42H65.214L64.164 50.4H54.2C53.8287 50.4 53.4726 50.5475 53.2101 50.8101C52.9475 51.0726 52.8 51.4287 52.8 51.8V78.4H44.4V51.8C44.4 51.4287 44.2524 51.0726 43.9899 50.8101C43.7274 50.5475 43.3713 50.4 43 50.4H34.6V42H43C43.3713 42 43.7274 41.8525 43.9899 41.5899C44.2524 41.3274 44.4 40.9713 44.4 40.6V32.7141C44.4 28.3116 45.6884 25.0977 47.8617 22.9387C50.035 20.7797 53.1778 19.6 57.1969 19.6Z" fill="#FFF3D7"/>
<rect x="1.5" y="1.5" width="97" height="97" rx="48.5" stroke="#FD8181" stroke-width="3"/>
</svg>
