<svg width="100" height="100" viewBox="0 0 100 100" fill="none" xmlns="http://www.w3.org/2000/svg">
<path d="M68.0469 26.4844C59.6188 26.4844 52.7449 33.3519 52.7344 41.7776L43.1854 53.9648C42.7819 54.4801 42.7232 55.1859 43.036 55.7608C43.3489 56.3356 43.9734 56.6696 44.6252 56.6106L45.1144 56.5657C49.6166 56.5859 53.2812 60.2589 53.2812 64.7656C53.2807 64.8324 53.2843 64.8991 53.2919 64.9654C53.2569 65.0854 53.2358 65.209 53.2289 65.3339C53.002 69.5536 49.4736 72.9687 45.0781 72.9687C42.5039 72.9687 40.2426 71.83 38.7421 70.0111C38.3736 69.5448 37.7818 69.3142 37.1949 69.4083C36.6081 69.5024 36.118 69.9064 35.9138 70.4646C35.7096 71.0227 35.8231 71.6476 36.2106 72.0982C38.3195 74.6544 41.5273 76.25 45.0781 76.25C50.8991 76.25 55.6694 71.8816 56.382 66.3165C59.9569 63.5165 64.3666 60.0393 68.0714 57.1072C76.4945 57.0936 83.3594 50.223 83.3594 41.7969C83.3594 33.3623 76.4814 26.4844 68.0469 26.4844ZM68.0469 29.7656C74.7061 29.7656 80.0781 35.1377 80.0781 41.7969C80.0781 48.4561 74.7061 53.8281 68.0469 53.8281H67.5C67.1304 53.8283 66.7718 53.9533 66.4821 54.1827C63.2952 56.7057 59.6023 59.6114 56.2581 62.2374C55.2826 57.9637 51.9103 54.5867 47.6416 53.5974L55.6663 43.3553C55.8925 43.0666 56.0155 42.7105 56.0156 42.3437V41.7969C56.0156 35.1377 61.3877 29.7656 68.0469 29.7656ZM68.0469 32.5C62.9318 32.5 58.75 36.6818 58.75 41.7969C58.75 46.912 62.9318 51.0937 68.0469 51.0937C73.162 51.0937 77.3437 46.912 77.3437 41.7969C77.3437 36.6818 73.162 32.5 68.0469 32.5ZM68.0469 35.7812C71.3886 35.7812 74.0625 38.4551 74.0625 41.7969C74.0625 45.1386 71.3886 47.8125 68.0469 47.8125C64.7051 47.8125 62.0312 45.1386 62.0312 41.7969C62.0312 38.4551 64.7051 35.7812 68.0469 35.7812ZM21.131 49.294C19.2133 49.2778 17.3645 50.3835 16.5573 52.2462C15.4851 54.7205 16.6222 57.6481 19.1058 58.7244L43.1053 69.2752C43.1331 69.2874 43.1613 69.2988 43.1897 69.3094C43.7394 69.5155 44.3672 69.6875 45.0781 69.6875C46.9495 69.6875 48.7953 68.5652 49.5931 66.6669C50.6583 64.1961 49.5251 61.2773 47.0477 60.2005L23.0397 49.6999C23.0383 49.6991 23.0369 49.6984 23.0354 49.6977C22.4169 49.4297 21.7702 49.2994 21.131 49.294ZM21.1011 52.5806C21.3146 52.5804 21.5284 52.6213 21.7302 52.7087L45.7329 63.2062C45.7347 63.2069 45.7364 63.2076 45.7382 63.2083C46.5358 63.5539 46.9306 64.5643 46.581 65.3712C46.5777 65.3783 46.5745 65.3855 46.5714 65.3926C46.2721 66.1107 45.7177 66.4062 45.0781 66.4062C44.9167 66.4062 44.6715 66.3583 44.3539 66.2407L20.4186 55.7166C20.4157 55.7155 20.4129 55.7144 20.41 55.7134C19.6124 55.3678 19.2186 54.3574 19.5683 53.5504C19.7411 53.1516 20.0797 52.8537 20.4762 52.6991C20.6745 52.6218 20.8876 52.5807 21.1011 52.5806Z" fill="#FFF3D7"/>
<rect x="1.5" y="1.5" width="97" height="97" rx="48.5" stroke="#FD8181" stroke-width="3"/>
</svg>
