<svg width="100" height="100" viewBox="0 0 100 100" fill="none" xmlns="http://www.w3.org/2000/svg">
<g clip-path="url(#clip0_20_35)">
<path d="M82.9215 34.1222C82.4652 32.5022 81.0087 31.2029 79.0635 30.6876C73.909 29.3207 62.7265 28 50 28C37.2735 28 26.091 29.3207 20.9352 30.6876C18.99 31.2029 17.5335 32.5022 17.0771 34.1222C16.2156 37.1811 15 42.8534 15 50.5C15 58.1466 16.2156 63.8189 17.0785 66.8777C17.5348 68.4977 18.9913 69.7971 20.9365 70.3124C26.091 71.6793 37.2735 73 50 73C62.7265 73 73.909 71.6793 79.0648 70.3124C81.01 69.7971 82.4665 68.4977 82.9229 66.8777C83.7844 63.8189 85 58.1466 85 50.5C85 42.8534 83.7844 37.1811 82.9215 34.1222ZM43.2692 59.5V41.5L63.269 50.5L43.2692 59.5Z" fill="#FFF3D7"/>
</g>
<rect x="1.5" y="1.5" width="97" height="97" rx="48.5" stroke="#FD8181" stroke-width="3"/>
<defs>
<clipPath id="clip0_20_35">
<rect width="70" height="45" fill="white" transform="translate(15 28)"/>
</clipPath>
</defs>
</svg>
