<svg width="100" height="100" viewBox="0 0 100 100" fill="none" xmlns="http://www.w3.org/2000/svg">
<path d="M70.7812 17.1875C69.8833 17.1886 68.9995 17.4107 68.2078 17.8343C67.4161 18.2579 66.7409 18.87 66.2417 19.6164L54.7616 17.5507L52.8839 17.211L52.2558 19.1635L46.8704 35.9094C39.6159 36.4749 33.2002 38.9876 28.6355 42.6898C27.9692 41.8974 27.1377 41.2601 26.1994 40.8225C25.2611 40.3849 24.2385 40.1575 23.2031 40.1562C21.4566 40.1655 19.7746 40.8173 18.4779 41.9873C17.1812 43.1573 16.3606 44.7638 16.1726 46.5001C15.9846 48.2365 16.4423 49.9814 17.4584 51.4018C18.4746 52.8223 19.9781 53.8191 21.6821 54.202C21.6075 54.7996 21.5625 55.4041 21.5625 56.0156C21.5625 67.1938 34.2937 76.25 50 76.25C65.7062 76.25 78.4375 67.1938 78.4375 56.0156C78.4375 55.4056 78.3921 54.8025 78.3179 54.2062C80.0261 53.8273 81.5347 52.8316 82.5547 51.4098C83.5747 49.9881 84.0345 48.2401 83.8462 46.5004C83.6579 44.7608 82.8346 43.1517 81.534 41.9812C80.2333 40.8106 78.5467 40.1609 76.7969 40.1562C75.7615 40.1575 74.7389 40.3849 73.8006 40.8225C72.8622 41.2601 72.0308 41.8974 71.3644 42.6898C66.8801 39.0527 60.6058 36.5724 53.5077 35.95L56.116 22.2375L65.462 23.9209C65.7465 25.1178 66.4263 26.1839 67.3915 26.9467C68.3567 27.7096 69.551 28.1247 70.7812 28.125C72.2316 28.125 73.6226 27.5488 74.6482 26.5232C75.6738 25.4977 76.25 24.1067 76.25 22.6562C76.25 21.2058 75.6738 19.8148 74.6482 18.7893C73.6226 17.7637 72.2316 17.1875 70.7812 17.1875ZM38.1332 46.7188C41.0645 46.7188 43.4375 49.1688 43.4375 52.1875C43.4375 55.2062 41.0645 57.6562 38.1332 57.6562C35.2129 57.7219 32.829 55.2062 32.829 52.1875C32.829 49.1688 35.2129 46.7188 38.1332 46.7188ZM61.8667 46.7188C64.7871 46.7188 67.171 49.1688 67.171 52.1875C67.171 55.2062 64.7871 57.7219 61.8667 57.6562C58.9355 57.6562 56.5625 55.2062 56.5625 52.1875C56.5625 49.1688 58.9355 46.7188 61.8667 46.7188ZM39.2804 62.4692C39.3132 62.4911 43.2515 65.7504 50 65.7504C56.7484 65.7504 61.0585 62.9717 61.0913 62.9498L63.3429 65.9683C63.1351 66.1214 58.2906 69.6875 50 69.6875C41.7094 69.6875 36.8649 66.1214 36.6571 65.9683L39.2804 62.4692Z" fill="#FFF3D7"/>
<rect x="1.5" y="1.5" width="97" height="97" rx="48.5" stroke="#FD8181" stroke-width="3"/>
</svg>
