<svg width="100" height="100" viewBox="0 0 100 100" fill="none" xmlns="http://www.w3.org/2000/svg">
<path d="M64.0633 29.9753C61.9251 27.524 60.6397 24.3276 60.6397 20.8333H57.9605M64.0633 29.9753C66.0119 32.2102 68.6503 33.8355 71.6548 34.4719C72.5884 34.6751 73.5626 34.7835 74.5776 34.7835V44.8057C69.3813 44.8057 64.5635 43.14 60.6391 40.3228V60.7062C60.6391 70.8912 52.3573 79.1667 42.1946 79.1667C36.8763 79.1667 32.0722 76.8911 28.7027 73.275C25.6308 69.9704 23.7498 65.5549 23.7498 60.7062C23.7498 50.6702 31.7881 42.4898 41.748 42.2731M64.0633 29.9753C64.0114 29.9414 63.9595 29.9071 63.9078 29.8725M35.3744 65.6091C34.373 64.2278 33.7776 62.5349 33.7776 60.6928C33.7776 56.0474 37.5531 52.2686 42.1948 52.2686C43.0609 52.2686 43.8998 52.4173 44.6847 52.6612V42.4223C43.8727 42.3138 43.0473 42.246 42.1948 42.246C42.0459 42.246 40.8468 42.3258 40.698 42.3258M57.9462 20.8333H50.6116L50.5982 61.0177C50.4358 65.5143 46.7278 69.1307 42.1946 69.1307C39.3798 69.1307 36.9033 67.7357 35.3606 65.6228" stroke="#FFF3D7" stroke-width="2.982" stroke-linejoin="round"/>
<rect x="1.5" y="1.5" width="97" height="97" rx="48.5" stroke="#FD8181" stroke-width="3"/>
</svg>
